<svg id="visual" viewBox="0 0 900 600" width="900" height="600" xmlns="http://www.w3.org/2000/svg" xmlns:xlink="http://www.w3.org/1999/xlink" version="1.1"><rect x="0" y="0" width="900" height="600" fill="#FFFFFF"></rect><g transform="translate(466.8116309239694 293.520032017011)"><path d="M136.8 -239.8C170.7 -217.5 186.8 -167.3 205.6 -122.7C224.3 -78.1 245.7 -39.1 263.8 10.5C281.9 60 296.8 120 279.3 166.6C261.7 213.2 211.6 246.5 159.6 260.8C107.7 275.2 53.8 270.6 6.3 259.8C-41.3 248.9 -82.7 231.8 -136.8 218.8C-190.9 205.7 -257.8 196.6 -292 160.8C-326.2 125 -327.6 62.5 -308.1 11.3C-288.6 -40 -248.2 -80 -218.6 -123.7C-189.1 -167.5 -170.3 -214.9 -135.6 -236.8C-101 -258.6 -50.5 -254.8 0.5 -255.7C51.5 -256.5 103 -262.1 136.8 -239.8" fill="#CCCCCC"></path></g></svg>